<mxfile host="app.diagrams.net" modified="2023-04-22T04:13:36.157Z" agent="Mozilla/5.0 (Windows NT 10.0; Win64; x64) AppleWebKit/537.36 (KHTML, like Gecko) Chrome/111.0.0.0 Safari/537.36" etag="4HTOIj10ZoBIPWffKQHK" version="21.2.1" type="github">
  <diagram name="ページ1" id="Wi3ow97mo1ZNvg_K3fFP">
    <mxGraphModel dx="1434" dy="756" grid="1" gridSize="10" guides="1" tooltips="1" connect="1" arrows="1" fold="1" page="1" pageScale="1" pageWidth="827" pageHeight="1169" math="0" shadow="0">
      <root>
        <mxCell id="0" />
        <mxCell id="1" parent="0" />
        <mxCell id="tcuDpP4PpeohYwXly67c-5" value="" style="edgeStyle=orthogonalEdgeStyle;rounded=0;orthogonalLoop=1;jettySize=auto;html=1;" edge="1" parent="1" source="tcuDpP4PpeohYwXly67c-2" target="tcuDpP4PpeohYwXly67c-4">
          <mxGeometry relative="1" as="geometry" />
        </mxCell>
        <mxCell id="tcuDpP4PpeohYwXly67c-7" value="" style="edgeStyle=orthogonalEdgeStyle;rounded=0;orthogonalLoop=1;jettySize=auto;html=1;" edge="1" parent="1" source="tcuDpP4PpeohYwXly67c-2" target="tcuDpP4PpeohYwXly67c-6">
          <mxGeometry relative="1" as="geometry" />
        </mxCell>
        <mxCell id="tcuDpP4PpeohYwXly67c-2" value="Abator" style="rounded=0;whiteSpace=wrap;html=1;" vertex="1" parent="1">
          <mxGeometry x="360" y="20" width="130" height="50" as="geometry" />
        </mxCell>
        <mxCell id="tcuDpP4PpeohYwXly67c-11" value="" style="edgeStyle=orthogonalEdgeStyle;rounded=0;orthogonalLoop=1;jettySize=auto;html=1;" edge="1" parent="1" source="tcuDpP4PpeohYwXly67c-4" target="tcuDpP4PpeohYwXly67c-10">
          <mxGeometry relative="1" as="geometry" />
        </mxCell>
        <mxCell id="tcuDpP4PpeohYwXly67c-12" value="" style="edgeStyle=orthogonalEdgeStyle;rounded=0;orthogonalLoop=1;jettySize=auto;html=1;" edge="1" parent="1" source="tcuDpP4PpeohYwXly67c-4" target="tcuDpP4PpeohYwXly67c-10">
          <mxGeometry relative="1" as="geometry" />
        </mxCell>
        <mxCell id="tcuDpP4PpeohYwXly67c-17" value="" style="edgeStyle=orthogonalEdgeStyle;rounded=0;orthogonalLoop=1;jettySize=auto;html=1;" edge="1" parent="1" source="tcuDpP4PpeohYwXly67c-4" target="tcuDpP4PpeohYwXly67c-16">
          <mxGeometry relative="1" as="geometry" />
        </mxCell>
        <mxCell id="tcuDpP4PpeohYwXly67c-4" value="3D" style="rounded=0;whiteSpace=wrap;html=1;" vertex="1" parent="1">
          <mxGeometry x="120" y="190" width="130" height="50" as="geometry" />
        </mxCell>
        <mxCell id="tcuDpP4PpeohYwXly67c-9" value="" style="edgeStyle=orthogonalEdgeStyle;rounded=0;orthogonalLoop=1;jettySize=auto;html=1;" edge="1" parent="1" source="tcuDpP4PpeohYwXly67c-6" target="tcuDpP4PpeohYwXly67c-8">
          <mxGeometry relative="1" as="geometry" />
        </mxCell>
        <mxCell id="tcuDpP4PpeohYwXly67c-6" value="2D" style="rounded=0;whiteSpace=wrap;html=1;" vertex="1" parent="1">
          <mxGeometry x="850" y="140" width="130" height="50" as="geometry" />
        </mxCell>
        <mxCell id="tcuDpP4PpeohYwXly67c-8" value="Live2D" style="rounded=0;whiteSpace=wrap;html=1;" vertex="1" parent="1">
          <mxGeometry x="850" y="250" width="130" height="50" as="geometry" />
        </mxCell>
        <mxCell id="tcuDpP4PpeohYwXly67c-27" style="edgeStyle=orthogonalEdgeStyle;rounded=0;orthogonalLoop=1;jettySize=auto;html=1;entryX=0.5;entryY=0;entryDx=0;entryDy=0;" edge="1" parent="1" source="tcuDpP4PpeohYwXly67c-10" target="tcuDpP4PpeohYwXly67c-16">
          <mxGeometry relative="1" as="geometry" />
        </mxCell>
        <mxCell id="tcuDpP4PpeohYwXly67c-10" value="Motion Capture" style="rounded=0;whiteSpace=wrap;html=1;" vertex="1" parent="1">
          <mxGeometry x="10" y="280" width="130" height="50" as="geometry" />
        </mxCell>
        <mxCell id="tcuDpP4PpeohYwXly67c-20" value="" style="edgeStyle=orthogonalEdgeStyle;rounded=0;orthogonalLoop=1;jettySize=auto;html=1;" edge="1" parent="1" source="tcuDpP4PpeohYwXly67c-16" target="tcuDpP4PpeohYwXly67c-19">
          <mxGeometry relative="1" as="geometry" />
        </mxCell>
        <mxCell id="tcuDpP4PpeohYwXly67c-23" value="" style="edgeStyle=orthogonalEdgeStyle;rounded=0;orthogonalLoop=1;jettySize=auto;html=1;" edge="1" parent="1" source="tcuDpP4PpeohYwXly67c-16" target="tcuDpP4PpeohYwXly67c-22">
          <mxGeometry relative="1" as="geometry" />
        </mxCell>
        <mxCell id="tcuDpP4PpeohYwXly67c-26" value="" style="edgeStyle=orthogonalEdgeStyle;rounded=0;orthogonalLoop=1;jettySize=auto;html=1;" edge="1" parent="1" source="tcuDpP4PpeohYwXly67c-16" target="tcuDpP4PpeohYwXly67c-25">
          <mxGeometry relative="1" as="geometry" />
        </mxCell>
        <mxCell id="tcuDpP4PpeohYwXly67c-16" value="Game Engine" style="rounded=0;whiteSpace=wrap;html=1;" vertex="1" parent="1">
          <mxGeometry x="260" y="330" width="130" height="50" as="geometry" />
        </mxCell>
        <mxCell id="tcuDpP4PpeohYwXly67c-19" value="Unity" style="rounded=0;whiteSpace=wrap;html=1;" vertex="1" parent="1">
          <mxGeometry x="120" y="450" width="130" height="50" as="geometry" />
        </mxCell>
        <mxCell id="tcuDpP4PpeohYwXly67c-22" value="UneralEngine" style="rounded=0;whiteSpace=wrap;html=1;" vertex="1" parent="1">
          <mxGeometry x="260" y="450" width="130" height="50" as="geometry" />
        </mxCell>
        <mxCell id="tcuDpP4PpeohYwXly67c-25" value="Godot Engine" style="rounded=0;whiteSpace=wrap;html=1;" vertex="1" parent="1">
          <mxGeometry x="400" y="450" width="130" height="50" as="geometry" />
        </mxCell>
      </root>
    </mxGraphModel>
  </diagram>
</mxfile>
